<svg height="512" viewBox="0 0 64 64" width="512" xmlns="http://www.w3.org/2000/svg"><path d="m10 50h2v2h-2z"/><path d="m14 50h2v2h-2z"/><path d="m18 50h28v2h-28z"/><path d="m48 50h2v2h-2z"/><path d="m52 50h2v2h-2z"/><path d="m15 46h2v2h-2z"/><path d="m11 46h2v2h-2z"/><path d="m19 46h2v2h-2z"/><path d="m23 46h2v2h-2z"/><path d="m27 46h2v2h-2z"/><path d="m31 46h2v2h-2z"/><path d="m35 46h2v2h-2z"/><path d="m39 46h2v2h-2z"/><path d="m43 46h2v2h-2z"/><path d="m47 46h2v2h-2z"/><path d="m51 46h2v2h-2z"/><path d="m39 31h2v2h-2z"/><path d="m62 23v-18a3 3 0 0 0 -3-3h-10a3 3 0 0 0 -3 3v1h-15a3 3 0 0 0 -2.816 2h-17.184a3 3 0 0 0 -3 3v31.764l-5.895 11.789a1 1 0 0 0 -.105.447v5a2 2 0 0 0 2 2h56a2 2 0 0 0 2-2v-5a1 1 0 0 0 -.1-.447l-5.9-11.789v-16.764h3a3 3 0 0 0 3-3zm-13-19h10a1 1 0 0 1 1 1v13h-12v-13a1 1 0 0 1 1-1zm-18 4h15v15a3 3 0 0 0 3 3h1v2h-20v-19a1 1 0 0 1 1-1zm0 28h18a2.966 2.966 0 0 0 1-.184v2.184h-36v-24h14v19a3 3 0 0 0 3 3zm18-2h-18a1 1 0 0 1 -1-1v-3h20v3a1 1 0 0 1 -1 1zm10.382 20h-54.764l5-10h44.764zm-30.382 2h6v1h-6zm-25 4v-4h23v1a2 2 0 0 0 2 2h6a2 2 0 0 0 2-2v-1h23v4zm50-18h-44v-31a1 1 0 0 1 1-1h17v2h-15a1 1 0 0 0 -1 1v26a1 1 0 0 0 1 1h38a1 1 0 0 0 1-1v-13h2zm6-19a1 1 0 0 1 -1 1h-10a1 1 0 0 1 -1-1v-3h12z"/><path d="m53 21h2v2h-2z"/><path d="m20 30h2v2h-2z"/><path d="m20 24h2v2h-2z"/><path d="m20 18h2v2h-2z"/><path d="m58 30h2v2h-2z"/><path d="m4 30h2v2h-2z"/><path d="m4 24h2v2h-2z"/><path d="m4 18h2v2h-2z"/><path d="m5 5h2v2h-2z"/></svg>