<svg id="Capa_1" enable-background="new 0 0 511.958 511.958" height="512" viewBox="0 0 511.958 511.958" width="512" xmlns="http://www.w3.org/2000/svg"><g><path d="m321.971 223.814v-62.905h-321.929v101.918h327.574c-3.709-12.617-5.645-25.765-5.645-39.013zm-248.721 2.941h-30v-29.775h30zm65.417 0h-30v-29.775h30z"/><path d="m416.965 28.99h-416.923v101.919h327.968l88.955-46.664zm-343.715 65.545h-30v-29.775h30zm35.417 0v-29.775h30v29.774h-30z"/><path d="m511.958 152.216-79.993-41.964-79.994 41.964v71.598c0 49.314 32.712 91.884 79.994 104.744 47.281-12.859 79.993-55.429 79.993-104.744zm-88.84 113.461-44.491-43.905 21.072-21.354 23.278 22.972 41.182-41.182 21.213 21.213z"/><path d="m416.965 355.344c-25.564-8.496-48.386-24.405-65.148-45.619-4.231-5.355-8.043-11.008-11.418-16.897h-340.357v101.919h416.923zm-343.715 3.33h-30v-29.774h30zm65.417 0h-30v-29.774h30z"/><path d="m228.755 424.746h-30v28.222h-198.755v30h427.556v-30h-198.801z"/></g></svg>