<svg id="Capa_1" enable-background="new 0 0 512 512" height="512" viewBox="0 0 512 512" width="512" xmlns="http://www.w3.org/2000/svg"><g><g><g><path d="m66.089 47.907h262.642v387.902h-262.642z" fill="#9dc6fb"/></g><g><path d="m299.437 47.907h29.295v387.902h-29.295z" fill="#80b4fb"/></g><g><path d="m66.089 27.703v20.203h262.642v-20.203c0-11.158-9.045-20.203-20.203-20.203h-222.235c-11.158 0-20.204 9.045-20.204 20.203z" fill="#407093"/></g><g><path d="m308.528 7.5h-29.295c11.158 0 20.203 9.045 20.203 20.203v20.203h29.295v-20.203c.001-11.158-9.045-20.203-20.203-20.203z" fill="#365e7d"/></g><g><path d="m328.732 484.297v-48.488h-262.643v48.488c0 11.158 9.045 20.203 20.203 20.203h222.236c11.158 0 20.204-9.045 20.204-20.203z" fill="#407093"/></g><g><path d="m299.437 435.809v48.488c0 11.158-9.045 20.203-20.203 20.203h29.295c11.158 0 20.203-9.045 20.203-20.203v-48.488z" fill="#365e7d"/></g></g><g><g><path d="m284.616 392.124h60.61v36.366h-60.61z" fill="#2b4d66" transform="matrix(.707 -.707 .707 .707 -197.893 342.859)"/></g><g><path d="m322.453 417.839h36.366v36.366h-36.366z" fill="#4a80aa" transform="matrix(.707 -.707 .707 .707 -208.544 368.573)"/></g><g><path d="m445.91 498.439v6.061h-79.654l-34.192-34.192 42.858-42.858z" fill="#f6e781"/></g><g><path d="m374.922 427.45-14.286 14.286 62.764 62.764h22.51v-6.061z" fill="#f4dd45"/></g><g><circle cx="219.206" cy="314.592" fill="#f6e781" r="121.22"/></g><g><path d="m292.512 218.052c15.483 20.358 24.679 45.757 24.679 73.307 0 66.948-54.272 121.22-121.22 121.22-27.55 0-52.948-9.197-73.307-24.679 22.141 29.113 57.143 47.913 96.54 47.913 66.948 0 121.22-54.272 121.22-121.22.001-39.399-18.799-74.401-47.912-96.541z" fill="#f4dd45"/></g><g><circle cx="219.206" cy="314.592" fill="#e4f6ff" r="88.894"/></g><g><path d="m272.888 243.737c11.319 14.916 18.04 33.513 18.04 53.682 0 49.095-39.799 88.894-88.894 88.894-20.169 0-38.765-6.721-53.682-18.04 16.233 21.393 41.929 35.212 70.855 35.212 49.095 0 88.894-39.799 88.894-88.894-.001-28.925-13.82-54.62-35.213-70.854z" fill="#d3effb"/></g></g><g><ellipse cx="197.41" cy="470.154" rx="10.102" ry="10.102" transform="matrix(.924 -.383 .383 .924 -164.894 111.334)"/><path d="m66.09 101.36c4.143 0 7.5-3.358 7.5-7.5v-38.45h247.64v113.83c0 4.142 3.357 7.5 7.5 7.5s7.5-3.358 7.5-7.5l.001-141.537c0-15.275-12.427-27.703-27.703-27.703h-222.235c-15.276 0-27.703 12.428-27.703 27.703v66.157c0 4.142 3.357 7.5 7.5 7.5zm7.5-73.657c0-7.004 5.698-12.703 12.703-12.703h222.235c7.005 0 12.703 5.699 12.703 12.703v12.704h-247.641z"/><path d="m315.6 314.59c0-25.747-10.028-49.955-28.237-68.164-18.204-18.204-42.41-28.229-68.158-28.229-25.749 0-49.955 10.025-68.159 28.229-9.698 9.699-17.067 21.055-21.904 33.754-1.475 3.871.469 8.204 4.339 9.678 3.87 1.472 8.204-.468 9.679-4.339 4.079-10.709 10.301-20.293 18.494-28.486 15.37-15.371 35.81-23.835 57.552-23.835 21.741 0 42.181 8.465 57.551 23.835 15.376 15.376 23.845 35.816 23.845 57.557 0 21.74-8.469 42.181-23.845 57.557-15.371 15.375-35.81 23.842-57.551 23.842-21.742 0-42.181-8.467-57.552-23.843-14.727-14.727-23.178-34.295-23.796-55.1-.124-4.14-3.627-7.401-7.72-7.274-4.141.123-7.397 3.579-7.274 7.719.732 24.642 10.741 47.819 28.183 65.26 18.204 18.209 42.409 28.237 68.159 28.237 25.749 0 49.955-10.028 68.158-28.236 18.208-18.207 28.236-42.415 28.236-68.162z"/><path d="m451.214 493.136-70.988-70.989c-1.407-1.407-3.314-2.197-5.304-2.197s-3.896.79-5.304 2.197l-3.268 3.268-15.108-15.108 3.268-3.268c2.929-2.929 2.929-7.678 0-10.606l-21.563-21.563c18.72-35.373 19.813-77.7 3.282-113.887v-56.743c0-4.142-3.357-7.5-7.5-7.5s-7.5 3.358-7.5 7.5v31.857c-3.353-4.352-7.02-8.538-11.006-12.524-50.187-50.187-131.848-50.187-182.038 0-50.185 50.188-50.185 131.849.001 182.037 9.287 9.287 19.653 16.85 30.696 22.7h-85.292v-299.45c0-4.142-3.357-7.5-7.5-7.5s-7.5 3.358-7.5 7.5v355.437c0 15.275 12.427 27.703 27.703 27.703h222.235c15.019 0 27.276-12.016 27.684-26.938l24.741 24.741c1.465 1.464 3.385 2.197 5.304 2.197s3.839-.732 5.304-2.197c2.929-2.929 2.929-7.678 0-10.606l-28.89-28.889 3.263-3.263c.002-.002.003-.003.005-.005s.003-.003.005-.005l25.705-25.705c.002-.002.003-.003.005-.005s.003-.003.005-.005l3.263-3.263 65.685 65.686c2.93 2.929 7.678 2.929 10.607 0 2.928-2.93 2.928-7.679 0-10.607zm-95.47-57.114-15.108 15.108-15.108-15.108 15.108-15.108zm-17.144-34.286-3.263 3.263c-.002.002-.003.003-.005.005s-.003.003-.005.005l-25.7 25.7c-.003.003-.007.006-.01.009s-.006.007-.009.01l-3.258 3.258-13.681-13.682c6.175-4.295 12.055-9.193 17.556-14.695 5.501-5.501 10.399-11.381 14.694-17.556zm-199.806-167.556c22.172-22.172 51.287-33.254 80.412-33.254 29.117 0 58.245 11.087 80.411 33.254 44.339 44.339 44.339 116.485 0 160.824-44.338 44.339-116.483 44.339-160.823 0-44.339-44.339-44.339-116.485 0-160.824zm169.734 262.82h-222.235c-7.005 0-12.703-5.699-12.703-12.703v-40.987h220.87l6.586 6.586c1.407 1.407 3.314 2.197 5.304 2.197s3.896-.79 5.304-2.197l3.268-3.268 6.31 6.31v31.358c-.001 7.005-5.699 12.704-12.704 12.704z"/></g></g></svg>